<svg xmlns="http://www.w3.org/2000/svg" xmlns:xlink="http://www.w3.org/1999/xlink" version="1.1" id="Layer_1" x="0px" y="0px" width="100%" viewBox="0 0 2001 2000" enable-background="new 0 0 2001 2000" xml:space="preserve">
<path fill="#FFFFFF" opacity="1.000000" stroke="none" d=" M1176.000000,2001.000000   C785.500000,2001.000000 395.500000,2000.993652 5.500024,2001.093018   C1.750930,2001.093872 0.906737,2000.249023 0.907281,1996.500000   C1.003694,1332.833374 1.003694,669.166687 0.907281,5.500014   C0.906737,1.751003 1.751000,0.906736 5.500013,0.907280   C669.500000,1.003702 1333.500000,1.003702 1997.500000,0.907280   C2001.249023,0.906736 2002.093262,1.751001 2002.092651,5.500013   C2001.996338,669.166687 2001.996216,1332.833374 2002.092651,1996.500000   C2002.093140,2000.249023 2001.249146,2001.094604 1997.500000,2001.093140   C1723.833374,2000.990967 1450.166626,2001.000000 1176.000000,2001.000000  z"/>
<path fill="#a41034" opacity="1.000000" stroke="none" d=" M654.256104,902.244263   C666.945374,890.261841 681.008911,880.701416 695.693420,872.133911   C724.442566,855.360535 754.760986,842.014404 786.445129,831.765686   C788.738525,831.023865 790.346985,830.341187 791.588684,833.095215   C792.984009,836.190125 790.329590,836.246521 788.780273,837.017700   C762.925964,849.885864 738.326599,864.896301 714.564575,881.234802   C697.554871,892.930603 681.862610,906.321655 667.973694,921.649597   C662.408569,927.791443 657.394043,934.426880 654.953796,942.647888   C652.416626,951.195129 654.730896,956.979004 662.733093,961.301636   C670.482239,965.487488 678.987915,967.097900 687.551270,967.878906   C696.268250,968.673889 705.055359,969.816589 713.823975,968.944580   C727.208618,967.613525 740.640076,967.047852 754.018311,965.294495   C767.955444,963.467834 781.826904,961.324646 795.655457,958.918640   C806.860596,956.969177 817.957642,954.385376 829.081970,951.987061   C855.116821,946.374207 880.810547,939.429688 906.377014,932.003723   C931.169617,924.802490 955.621765,916.535645 979.975708,908.000793   C1007.545593,898.338989 1034.839722,887.941956 1061.815552,876.696289   C1083.588989,867.619446 1105.189453,858.175476 1126.421753,847.904541   C1152.502319,835.288452 1178.812744,823.050964 1202.502686,806.104858   C1218.910400,794.368103 1232.965332,780.203674 1245.022583,764.020325   C1251.561646,755.243408 1257.127197,745.887329 1262.307495,736.277283   C1263.076172,734.851257 1263.391113,733.880859 1265.850586,734.769592   C1277.627563,739.025269 1290.022705,740.097839 1302.327515,738.806458   C1312.459595,737.743225 1322.485352,735.278259 1331.251831,729.380371   C1336.074829,726.135498 1337.168579,726.494690 1339.002319,730.819641   C1339.686646,732.433899 1339.458252,733.029541 1337.853516,734.125305   C1327.087769,741.477600 1316.479858,749.062012 1305.852173,756.615295   C1303.608032,758.210266 1301.713867,758.610107 1298.985474,757.108398   C1293.899292,754.308960 1288.499268,756.823730 1285.808472,762.668823   C1283.503174,767.676819 1286.197876,773.323792 1292.192505,776.046509   C1296.802368,778.140320 1302.298584,776.049927 1304.323486,771.104126   C1305.177368,769.018921 1306.914185,766.946167 1305.168335,764.233276   C1304.215942,762.753296 1305.814819,761.427002 1307.009766,760.563171   C1317.575684,752.924255 1328.192017,745.355408 1338.762939,737.723572   C1340.832275,736.229553 1342.694824,735.367798 1344.521973,738.021118   C1346.238281,740.513550 1345.573242,741.580383 1343.118042,743.672119   C1329.067505,755.643555 1320.798828,771.183899 1317.067505,789.134399   C1316.006714,794.237793 1314.896362,799.406433 1315.028320,804.679626   C1315.083740,806.898438 1313.875854,806.946838 1312.205322,807.025940   C1293.010742,807.935181 1274.394043,811.728638 1256.330566,818.288757   C1240.432983,824.062317 1226.254395,832.985779 1212.315796,842.320068   C1198.635864,851.481018 1184.307739,859.523010 1169.969849,867.580505   C1152.607422,877.337585 1134.879395,886.382812 1116.920654,894.947327   C1088.463745,908.518372 1059.461548,920.830261 1030.012451,932.134827   C1006.660706,941.098816 983.060852,949.298950 959.278931,956.999878   C933.642700,965.301392 907.664612,972.483337 881.450500,978.629456   C860.716125,983.490784 839.796631,987.634155 818.750183,991.112610   C802.624878,993.777771 786.426147,995.870667 770.218384,997.770935   C764.389404,998.454346 758.379883,998.723938 752.461792,999.126526   C738.696289,1000.063049 724.908325,1000.503357 711.171631,999.856750   C694.705261,999.081604 678.189270,997.666260 662.502502,991.950989   C649.460266,987.199097 638.011169,980.303528 631.572754,967.150696   C626.172729,956.118835 626.817261,944.969299 630.695801,933.781555   C635.152527,920.925903 644.553467,911.672302 654.256104,902.244263  z"/>
<path fill="#a41034" opacity="1.000000" stroke="none" d=" M1467.544922,1270.763916   C1456.880005,1273.987549 1446.402344,1275.800171 1435.625366,1274.980347   C1418.017700,1273.641235 1402.379517,1267.507935 1389.116211,1255.636108   C1376.828125,1244.637085 1368.113770,1231.461182 1364.640015,1215.193359   C1359.337280,1190.360840 1363.882690,1167.759033 1379.834595,1147.572266   C1392.308105,1131.787109 1408.663940,1122.330200 1428.097534,1119.264648   C1451.810059,1115.523804 1473.305298,1121.513428 1491.948730,1137.331177   C1507.280762,1150.339233 1516.167358,1167.046143 1518.680298,1186.404541   C1521.374390,1207.157593 1516.719360,1226.792725 1503.651611,1243.905029   C1494.238403,1256.231567 1482.224121,1264.910156 1467.544922,1270.763916  z"/>
<path fill="#1A1A1A" opacity="1.000000" stroke="none" d=" M941.000000,791.000000   C954.329041,791.000000 967.159851,791.115906 979.985901,790.919800   C983.259094,790.869751 984.143188,791.758301 984.079651,795.020996   C983.868835,805.846619 983.809875,816.684021 984.102722,827.505798   C984.205566,831.305481 983.145447,832.108032 979.458923,832.091492   C944.971191,831.936951 910.481934,832.084290 875.994568,831.890625   C871.798157,831.867126 870.841980,832.916504 870.892395,837.039062   C871.132751,856.696167 871.084961,876.358643 870.917542,896.017334   C870.889221,899.345764 871.853577,900.084412 875.050659,900.072083   C906.201721,899.952332 937.353394,900.000000 969.460266,900.000000   C965.774475,902.919495 961.999268,903.748901 958.550964,904.920349   C920.318726,917.908630 881.516602,928.969299 842.371643,938.841675   C841.269775,939.119568 840.029175,938.822876 838.910095,939.061096   C828.996216,941.171814 829.000000,941.189636 829.000000,930.950989   C829.000000,885.966003 829.065247,840.980835 828.892273,795.996521   C828.876160,791.805359 829.914856,790.874268 834.036133,790.895386   C869.523315,791.077515 905.011841,791.000000 941.000000,791.000000  z"/>
<path fill="#1A1A1A" opacity="1.000000" stroke="none" d=" M1016.000000,968.000366   C1016.000000,962.169739 1016.165405,956.831604 1015.929443,951.511230   C1015.813416,948.894897 1016.884033,947.803955 1019.136169,946.989746   C1040.129883,939.400452 1060.740112,930.838562 1081.319458,922.208984   C1083.537109,921.279114 1085.663208,920.958679 1087.974731,920.989685   C1099.609497,921.145813 1111.255859,921.378906 1122.369385,917.005615   C1134.492676,912.235107 1144.003662,904.596680 1149.219971,892.343994   C1150.329956,889.736633 1152.264038,888.188721 1154.665039,887.040039   C1167.877075,880.718750 1180.345703,873.026062 1193.595337,865.928345   C1195.441284,881.066833 1194.084717,895.533752 1187.901245,909.443115   C1183.764648,918.748169 1178.192261,927.198364 1171.034546,934.265869   C1158.744873,946.400696 1144.038452,954.647095 1127.208740,959.029419   C1113.296753,962.651917 1099.128540,961.960144 1084.990967,961.996338   C1076.994751,962.016785 1068.993286,962.168823 1061.004883,961.918762   C1057.706177,961.815491 1056.908936,962.793030 1056.924683,966.029297   C1057.056885,993.182434 1056.916382,1020.337097 1057.096924,1047.489746   C1057.121948,1051.238159 1056.212891,1052.194824 1052.476196,1052.098755   C1041.655151,1051.820068 1030.819580,1051.862061 1019.995850,1052.082764   C1016.685913,1052.150146 1015.909851,1051.183350 1015.925781,1047.962524   C1016.057312,1021.475647 1016.000000,994.987793 1016.000000,968.000366  z"/>
<path fill="#a41034" opacity="1.000000" stroke="none" d=" M1110.650146,1216.735840   C1097.245361,1224.126221 1082.925171,1224.012695 1068.621216,1224.001099   C1062.000732,1223.995605 1062.000244,1224.000610 1062.000122,1230.509888   C1061.999756,1242.840820 1061.824219,1255.175781 1062.103271,1267.500366   C1062.191040,1271.379150 1060.996094,1272.232056 1057.361938,1272.085083   C1050.208374,1271.795898 1043.025879,1271.786865 1035.873047,1272.085938   C1032.046997,1272.245972 1030.884644,1271.270508 1030.900024,1267.237305   C1031.061646,1224.579590 1031.000000,1181.921143 1031.000000,1139.262817   C1031.000122,1134.263794 1031.147705,1129.258667 1030.942139,1124.268188   C1030.830444,1121.555176 1031.817627,1120.934814 1034.366943,1120.949829   C1051.196533,1121.048340 1068.058105,1120.346802 1084.849487,1121.152832   C1110.387817,1122.378662 1130.403198,1136.681519 1136.770142,1163.460938   C1140.508423,1179.184570 1131.718628,1202.586670 1118.387939,1211.875977   C1115.995728,1213.542969 1113.446411,1214.984741 1110.650146,1216.735840  z"/>
<path fill="#1A1A1A" opacity="1.000000" stroke="none" d=" M1021.113281,791.000000   C1047.267456,791.000000 1072.932373,790.906311 1098.596191,791.032043   C1116.519775,791.119812 1133.789673,794.330261 1149.598145,803.260864   C1155.800171,806.764648 1161.683105,810.799377 1166.999268,816.171936   C1167.148071,817.435120 1165.409058,817.278625 1164.606934,817.688232   C1152.672974,823.781616 1140.652588,829.705322 1128.692749,835.748474   C1126.041748,837.087952 1123.636841,837.327759 1120.809814,836.044861   C1116.516846,834.096924 1111.830322,833.125610 1107.158203,833.069336   C1091.828369,832.884644 1076.493042,833.132690 1061.164429,832.903259   C1057.495605,832.848328 1056.831055,834.022278 1056.919312,837.373230   C1057.155884,846.366211 1056.904297,855.371155 1057.061890,864.367615   C1057.105591,866.861633 1056.347412,868.118469 1054.010742,869.040283   C1041.488892,873.980103 1029.028076,879.074646 1016.193665,884.258118   C1016.114441,882.476624 1016.007751,881.189819 1016.007324,879.903015   C1015.997803,851.738831 1016.096008,823.573914 1015.890259,795.411194   C1015.861389,791.457214 1017.103210,790.395386 1021.113281,791.000000  z"/>
<path fill="#1A1A1A" opacity="1.000000" stroke="none" d=" M976.930908,1052.000000   C928.979797,1052.000000 881.521484,1051.944092 834.063904,1052.099731   C830.000916,1052.113037 828.790466,1051.292358 828.883362,1047.034668   C829.192017,1032.887207 829.083740,1018.727966 828.943115,1004.575195   C828.906311,1000.868164 829.454285,999.353638 833.937378,998.759521   C844.310242,997.384888 854.544922,994.877563 864.778442,992.575439   C870.735474,991.235352 870.955017,991.237427 871.012939,997.124146   C871.053589,1001.252502 869.631348,1006.827271 871.735840,1009.130676   C874.211609,1011.840454 879.869873,1009.951538 884.136536,1009.961243   C915.775146,1010.032776 947.414612,1010.096802 979.051941,1009.885681   C983.326782,1009.857178 984.228333,1011.029846 984.103394,1015.082336   C983.790405,1025.230347 984.000122,1035.394531 984.000000,1045.552246   C983.999878,1051.999146 983.999756,1051.999146 976.930908,1052.000000  z"/>
<path fill="#a41034" opacity="1.000000" stroke="none" d=" M1607.990723,1269.761597   C1607.707764,1273.037964 1605.513184,1271.928345 1604.127441,1271.948853   C1596.796021,1272.057861 1589.450073,1271.748291 1582.133911,1272.098633   C1578.043945,1272.294556 1576.855957,1271.258667 1576.890381,1266.995239   C1577.106812,1240.164917 1577.000000,1213.331909 1577.000000,1186.499878   C1577.000000,1176.333740 1576.852539,1166.164185 1577.083008,1156.003174   C1577.159790,1152.613770 1576.031616,1151.868042 1572.866821,1151.930542   C1563.204346,1152.121582 1553.533569,1151.886108 1543.870728,1152.067749   C1540.874512,1152.124146 1539.821777,1151.424561 1539.920776,1148.233765   C1540.163452,1140.408447 1540.169067,1132.564941 1539.918945,1124.739990   C1539.815552,1121.506592 1540.951294,1120.930054 1543.895996,1120.938843   C1576.394165,1121.036133 1608.892944,1121.031982 1641.391113,1120.943237   C1644.169434,1120.935669 1645.135986,1121.615967 1645.066040,1124.526123   C1644.873657,1132.521118 1644.871582,1140.526855 1645.066162,1148.521729   C1645.138306,1151.481812 1644.047852,1152.094971 1641.342529,1152.054810   C1631.845215,1151.913330 1622.338501,1152.190552 1612.847534,1151.907593   C1608.971436,1151.791992 1607.885620,1152.808594 1607.902954,1156.788818   C1608.065552,1194.286377 1607.998779,1231.784912 1607.990723,1269.761597  z"/>
<path fill="#a41034" opacity="1.000000" stroke="none" d=" M1271.000000,1272.000000   C1263.837524,1271.999878 1257.170532,1271.855713 1250.514648,1272.066284   C1247.588501,1272.158813 1246.940430,1271.144653 1246.944946,1268.382812   C1247.021606,1220.413086 1247.026001,1172.443115 1246.938110,1124.473389   C1246.932739,1121.521851 1247.953979,1120.888428 1250.657349,1120.945312   C1258.149414,1121.103271 1265.655396,1121.212402 1273.138672,1120.911987   C1276.983521,1120.757568 1278.118042,1121.759277 1278.099365,1125.770630   C1277.929932,1162.246948 1278.105835,1198.725098 1277.873291,1235.200684   C1277.842285,1240.050781 1279.025391,1241.223145 1283.830811,1241.127686   C1300.480469,1240.796631 1317.144897,1241.208984 1333.794067,1240.865601   C1338.450439,1240.769653 1339.293823,1242.257446 1339.092163,1246.428711   C1338.754761,1253.408081 1338.778076,1260.425415 1339.089966,1267.407104   C1339.255859,1271.122070 1338.248047,1272.132935 1334.459595,1272.096558   C1313.474731,1271.895020 1292.486816,1272.000000 1271.000000,1272.000000  z"/>
<path fill="#1A1A1A" opacity="1.000000" stroke="none" d=" M359.000000,1152.000000   C359.000000,1142.505127 359.111694,1133.507935 358.934418,1124.516602   C358.878662,1121.687988 359.694946,1120.926880 362.516113,1120.937622   C389.833557,1121.041626 417.151703,1121.040649 444.469147,1120.938721   C447.268036,1120.928345 448.235901,1121.641968 448.056549,1124.504028   C447.766541,1129.131348 449.581635,1135.182129 447.283936,1138.037598   C444.871124,1141.036011 438.569946,1138.924316 433.980255,1138.953857   C416.324341,1139.067749 398.666443,1139.088013 381.011383,1138.920776   C377.739197,1138.889771 376.870789,1139.763794 376.920837,1143.021240   C377.115234,1155.677734 377.119690,1168.340942 376.918488,1180.997070   C376.866150,1184.289795 377.792450,1185.106445 381.029785,1185.076904   C398.684967,1184.915283 416.343231,1185.089844 433.998260,1184.919556   C437.288483,1184.887939 438.309998,1185.778564 438.062866,1189.034302   C437.724945,1193.486328 439.502319,1199.329346 437.281036,1202.070068   C434.950104,1204.946167 428.877289,1202.920288 424.450562,1202.956055   C409.959717,1203.073120 395.465851,1203.112305 380.976746,1202.915527   C377.635712,1202.870361 376.887848,1203.865845 376.925781,1207.055908   C377.096100,1221.379150 377.114838,1235.707031 376.914856,1250.029419   C376.868011,1253.382690 377.885803,1254.093506 381.061768,1254.072021   C401.882355,1253.932251 422.705505,1254.113770 443.524780,1253.896973   C447.345947,1253.857178 448.410278,1254.880737 448.070404,1258.562256   C447.675812,1262.836304 449.469482,1268.644165 447.289856,1271.073730   C444.749359,1273.905518 438.852692,1271.941528 434.424225,1271.958130   C410.771332,1272.046997 387.117004,1271.896973 363.465576,1272.103638   C359.626129,1272.137085 358.899170,1271.067749 358.912567,1267.434204   C359.053864,1229.123291 359.000000,1190.811523 359.000000,1152.000000  z"/>
<path fill="#1A1A1A" opacity="1.000000" stroke="none" d=" M854.001892,1206.019043   C861.702759,1223.228882 869.356323,1240.052612 877.021423,1256.870972   C879.283142,1261.833496 882.096802,1266.557373 883.584778,1272.000000   C879.833191,1272.000000 876.079163,1271.468994 872.538940,1272.113281   C865.682007,1273.360962 862.520386,1270.076294 860.524963,1264.150391   C859.094421,1259.902100 856.929993,1255.906128 855.357361,1251.698608   C854.311035,1248.899292 852.799377,1247.892944 849.666565,1247.913086   C825.189697,1248.070312 800.711304,1248.037720 776.233765,1247.947266   C773.488586,1247.937134 771.903015,1248.447876 770.795532,1251.337036   C768.495300,1257.338013 765.507385,1263.071655 763.051758,1269.018311   C762.096741,1271.331055 760.869568,1272.156128 758.370178,1272.061279   C753.088684,1271.860352 747.794312,1272.000000 741.934753,1272.000000   C747.067383,1260.811768 752.054565,1250.026855 756.969543,1239.209106   C768.323975,1214.218384 779.664124,1189.220947 790.969177,1164.207886   C797.387817,1150.006226 803.695435,1135.754150 810.158691,1121.572998   C810.665588,1120.460693 810.916382,1118.808594 813.117310,1118.903931   C815.249268,1118.996094 814.729431,1120.438843 815.222290,1121.507324   C823.304993,1139.029053 831.448730,1156.522461 839.532898,1174.043335   C844.382385,1184.553711 849.152954,1195.100586 854.001892,1206.019043  z"/>
<path fill="#1A1A1A" opacity="1.000000" stroke="none" d=" M647.991333,1148.071533   C640.782410,1156.321411 642.621704,1168.813843 651.963989,1174.608032   C662.867859,1181.370483 675.087891,1184.942993 686.674072,1190.043457   C698.788391,1195.376343 710.754272,1201.199951 718.203430,1212.828369   C725.108643,1223.607666 724.787659,1239.075317 718.047852,1250.339966   C708.079712,1267.000366 692.221008,1273.036011 673.728210,1274.017700   C663.144104,1274.579468 652.872009,1273.302612 643.149963,1268.955078   C632.882019,1264.363403 624.900757,1257.116455 619.103516,1247.464600   C617.946899,1245.538818 617.575073,1243.936279 620.323547,1243.132568   C620.607117,1243.049561 620.785034,1242.655518 621.054382,1242.465942   C624.359131,1240.140015 627.422058,1236.556763 631.048401,1235.842651   C635.198181,1235.025757 635.901489,1240.707275 638.473145,1243.219482   C654.416443,1258.793701 679.298218,1260.959106 696.793457,1247.334717   C706.843079,1239.508545 708.703186,1227.169312 697.567566,1216.871338   C689.028381,1208.974487 678.323364,1205.194336 667.820374,1201.026855   C657.636597,1196.985840 647.559387,1193.005737 638.543030,1186.358276   C625.601746,1176.817139 622.182739,1159.365967 628.246704,1145.484253   C635.046204,1129.918579 647.838196,1122.595581 664.086853,1119.935669   C679.179016,1117.464844 692.673889,1120.403687 704.798279,1129.918457   C709.823181,1133.861938 712.833191,1139.122437 715.736572,1144.513306   C716.473877,1145.882202 716.321350,1147.299805 714.261047,1148.429565   C710.595947,1150.438965 707.412842,1154.860107 703.842712,1155.066650   C700.463257,1155.261963 699.156189,1149.418457 696.307556,1146.644775   C682.593994,1133.292358 660.838196,1133.632568 647.991333,1148.071533  z"/>
<path fill="#1A1A1A" opacity="1.000000" stroke="none" d=" M541.640991,1137.001099   C530.999512,1136.406494 521.536194,1138.395630 514.414001,1146.198364   C505.939789,1155.482544 505.353760,1166.621704 517.064270,1174.691772   C526.103271,1180.921021 536.494385,1183.867432 546.416504,1187.960571   C557.984497,1192.732788 569.496460,1197.719360 578.287231,1206.907227   C591.222107,1220.426514 590.599365,1239.663574 580.623169,1253.777466   C572.261719,1265.606934 560.067688,1270.917480 546.049683,1273.102173   C529.140076,1275.737549 513.319214,1273.392212 498.879791,1263.946777   C492.519989,1259.786499 487.687897,1254.073608 484.099243,1247.379761   C483.230072,1245.758545 482.248474,1244.197266 485.205719,1242.822388   C488.380951,1241.345947 491.320770,1239.019165 493.809814,1236.513672   C496.026093,1234.282715 497.269165,1235.282837 498.493347,1237.039307   C508.743378,1251.746582 523.225403,1257.437866 540.522888,1255.856201   C550.501953,1254.943726 559.586548,1251.052246 565.850830,1242.589478   C571.444336,1235.032837 571.151306,1226.353027 564.714600,1219.191406   C556.000000,1209.495605 543.963562,1205.740234 532.469238,1200.996338   C520.839783,1196.196533 508.932312,1192.028931 499.486084,1183.067749   C485.837616,1170.120117 488.277252,1147.284912 499.474762,1134.987671   C510.781372,1122.570679 525.333679,1118.120239 541.389954,1119.173828   C557.407654,1120.224976 570.667847,1127.067627 579.097778,1141.570068   C581.154968,1145.109375 581.649658,1147.778687 577.358521,1150.028564   C574.227051,1151.670410 571.457886,1155.347900 568.430542,1155.457886   C565.516235,1155.563721 564.844299,1150.512085 562.664612,1148.059082   C557.122742,1141.822632 550.127441,1138.502930 541.640991,1137.001099  z"/>
<path fill="#a41034" opacity="1.000000" stroke="none" d=" M1172.000000,1235.000000   C1172.000000,1198.336792 1172.080322,1162.173218 1171.892578,1126.010986   C1171.870483,1121.760254 1173.026245,1120.691650 1177.127319,1120.901611   C1184.108521,1121.258667 1191.129883,1121.211182 1198.116821,1120.915649   C1201.923584,1120.754517 1203.117798,1121.700317 1203.101562,1125.753418   C1202.935547,1167.082153 1203.000000,1208.411865 1203.000000,1249.741211   C1203.000000,1255.907227 1202.810791,1262.081543 1203.077881,1268.235962   C1203.216675,1271.435669 1202.119385,1272.145508 1199.125977,1272.067017   C1191.465332,1271.865845 1183.791748,1271.856079 1176.131836,1272.068970   C1172.961304,1272.156982 1171.847534,1271.380737 1171.917236,1267.995239   C1172.140259,1257.167603 1172.000000,1246.332275 1172.000000,1235.000000  z"/>
<path fill="#1A1A1A" opacity="1.000000" stroke="none" d=" M972.732544,1162.766846   C965.777161,1174.054688 959.403442,1185.286499 952.289856,1196.028076   C947.379272,1203.443237 944.312317,1210.711304 944.779114,1220.026123   C945.578796,1235.980713 944.901672,1252.005615 945.080994,1267.998413   C945.117920,1271.292480 944.217957,1272.309814 940.963684,1272.062744   C936.511047,1271.724365 930.664856,1273.500122 927.927124,1271.277100   C925.054810,1268.944702 927.076355,1262.870361 927.043640,1258.442139   C926.930420,1243.114624 926.961121,1227.785645 927.036133,1212.457642   C927.049500,1209.725708 926.280090,1207.536133 924.809998,1205.179810   C913.548157,1187.128784 902.480103,1168.956787 891.361633,1150.816406   C885.481995,1141.223389 879.621582,1131.618530 873.137024,1121.012451   C880.299744,1121.012451 886.491760,1120.992798 892.683411,1121.025635   C894.319092,1121.034302 894.569214,1122.485596 895.266846,1123.590820   C908.095703,1143.913696 921.117676,1164.116699 933.730408,1184.572144   C936.010193,1188.269409 936.613037,1186.730835 938.024902,1184.484619   C949.955017,1165.505493 962.099548,1146.656128 973.685486,1127.469360   C976.480835,1122.840088 979.157410,1120.295532 984.742981,1120.907227   C989.003784,1121.373901 993.356750,1121.000000 998.519836,1121.000000   C989.785522,1135.203369 981.392090,1148.852539 972.732544,1162.766846  z"/>
<path fill="#FFFFFF" opacity="1.000000" stroke="none" d=" M1482.742676,1176.366699   C1495.399048,1201.233398 1482.936035,1228.602295 1461.005859,1238.856201   C1436.522461,1250.303711 1411.453003,1240.776245 1398.940674,1217.391113   C1386.720703,1194.553101 1396.993774,1164.584229 1423.208618,1153.323242   C1443.253662,1144.712524 1471.119751,1152.143677 1482.742676,1176.366699  z"/>
<path fill="#FFFFFF" opacity="1.000000" stroke="none" d=" M1091.172607,1153.628174   C1099.774170,1156.123901 1105.811768,1163.444336 1105.999878,1171.479492   C1106.211792,1180.523804 1100.886230,1188.054199 1092.538696,1191.027710   C1083.192383,1194.356812 1073.553345,1192.483887 1064.049683,1192.993042   C1062.112549,1193.096802 1061.992554,1191.875000 1061.994751,1190.419067   C1062.012085,1178.428955 1062.040527,1166.438477 1061.972778,1154.448853   C1061.961182,1152.385864 1062.870361,1151.895508 1064.682007,1151.989136   C1073.406128,1152.440430 1082.235107,1150.882812 1091.172607,1153.628174  z"/>
<path fill="#FFFFFF" opacity="1.000000" stroke="none" d=" M809.000244,1165.999512   C810.236694,1163.048706 811.429504,1160.488525 813.058044,1156.993042   C824.350708,1182.362915 835.263123,1206.878662 846.338989,1231.761353   C823.912415,1231.761353 802.069702,1231.761353 779.708130,1231.761353   C783.252563,1223.773682 786.602051,1216.165161 790.000977,1208.578735   C796.304321,1194.509033 802.636475,1180.452271 809.000244,1165.999512  z"/>
</svg>