<svg width="34" height="31" viewBox="0 0 34 31" fill="none" xmlns="http://www.w3.org/2000/svg">
<path d="M15.5964 26.9044L15.5935 26.9018C11.2625 22.9744 7.82895 19.8514 5.45478 16.9468C3.10259 14.069 2 11.6508 2 9.16667C2 5.12362 5.13552 2 9.16667 2C11.1381 2 13.0736 2.79592 14.5062 4.10639C15.7225 5.21902 17.6109 5.21901 18.8272 4.10639C20.2597 2.79592 22.1953 2 24.1667 2C28.1978 2 31.3333 5.12362 31.3333 9.16667C31.3333 11.6508 30.2307 14.069 27.8786 16.9468C25.5044 19.8514 22.0708 22.9744 17.7398 26.9018L17.737 26.9044L16.6667 27.8787L15.5964 26.9044Z" stroke="#D9D9D9" stroke-width="4"/>
</svg>
