<svg width="28" height="32" viewBox="0 0 28 32" fill="none" xmlns="http://www.w3.org/2000/svg">
<path d="M5.71727 30.7602L0.810659 25.8535C0.615398 25.6583 0.615398 25.3417 0.81066 25.1464L5.71727 20.2398C5.91495 20.0421 6.23633 20.045 6.43052 20.2461L7.25778 21.1029C7.44722 21.2991 7.44448 21.6109 7.25164 21.8038L7.19939 21.856C6.25444 22.801 6.92369 24.4167 8.26005 24.4167H20.9167C21.7451 24.4167 22.4167 23.7451 22.4167 22.9167V18.5833C22.4167 18.3072 22.6405 18.0833 22.9167 18.0833H24.0833C24.3595 18.0833 24.5833 18.3072 24.5833 18.5833V26.0833C24.5833 26.3595 24.3595 26.5833 24.0833 26.5833H8.26005C6.92369 26.5833 6.25444 28.199 7.19939 29.144L7.25164 29.1962C7.44448 29.3891 7.44722 29.7009 7.25778 29.8971L6.43052 30.7539C6.23633 30.955 5.91495 30.9578 5.71727 30.7602ZM3.41667 13.4167V5.91666C3.41667 5.64052 3.64052 5.41666 3.91667 5.41666H19.74C21.0763 5.41666 21.7456 3.80095 20.8006 2.856L20.7484 2.80375C20.5555 2.61091 20.5528 2.2991 20.7422 2.1029L21.5695 1.2461C21.7637 1.04497 22.085 1.04215 22.2827 1.23984L27.1893 6.14644C27.3846 6.34171 27.3846 6.65829 27.1893 6.85355L22.2827 11.7602C22.085 11.9578 21.7637 11.955 21.5695 11.7539L20.7422 10.8971C20.5528 10.7009 20.5555 10.3891 20.7484 10.1962L20.8006 10.144C21.7456 9.19904 21.0763 7.58333 19.74 7.58333H7.08333C6.2549 7.58333 5.58333 8.2549 5.58333 9.08333V13.4167C5.58333 13.6928 5.35948 13.9167 5.08333 13.9167H3.91667C3.64052 13.9167 3.41667 13.6928 3.41667 13.4167Z" fill="#D9D9D9" stroke="#D9D9D9"/>
</svg>
