<svg width="40" height="40" viewBox="0 0 40 40" fill="none" xmlns="http://www.w3.org/2000/svg">
<path d="M36.6666 21.6667C36.6666 23.5167 35.1833 25 33.3333 25H6.66665C5.78259 25 4.93474 24.6488 4.30962 24.0237C3.6845 23.3986 3.33331 22.5507 3.33331 21.6667C3.33331 20.7826 3.6845 19.9348 4.30962 19.3096C4.93474 18.6845 5.78259 18.3333 6.66665 18.3333H21.6666L25.8333 21.6667L30 18.3333H33.3333C34.2174 18.3333 35.0652 18.6845 35.6903 19.3096C36.3155 19.9348 36.6666 20.7826 36.6666 21.6667ZM20 5C4.99998 5 4.99998 15 4.99998 15H35C35 15 35 5 20 5ZM4.99998 30C4.99998 32.7667 7.23331 35 9.99998 35H30C32.7666 35 35 32.7667 35 30V28.3333H4.99998V30Z" fill="#D9D9D9"/>
</svg>
