<svg width="27" height="31" viewBox="0 0 27 31" fill="none" xmlns="http://www.w3.org/2000/svg">
<path d="M21.875 30.0834C20.6597 30.0834 19.6267 29.658 18.776 28.8073C17.9253 27.9566 17.5 26.9236 17.5 25.7084C17.5 25.5382 17.5122 25.3618 17.5365 25.179C17.5608 24.9962 17.5972 24.8324 17.6458 24.6875L7.36458 18.7084C6.95139 19.0729 6.48958 19.3588 5.97917 19.5659C5.46875 19.7729 4.93403 19.876 4.375 19.875C3.15972 19.875 2.12674 19.4497 1.27604 18.599C0.425347 17.7483 0 16.7153 0 15.5C0 14.2847 0.425347 13.2518 1.27604 12.4011C2.12674 11.5504 3.15972 11.125 4.375 11.125C4.93403 11.125 5.46875 11.2286 5.97917 11.4356C6.48958 11.6427 6.95139 11.9281 7.36458 12.2917L17.6458 6.31252C17.5972 6.16669 17.5608 6.00287 17.5365 5.82106C17.5122 5.63926 17.5 5.4628 17.5 5.29169C17.5 4.07641 17.9253 3.04342 18.776 2.19273C19.6267 1.34203 20.6597 0.916687 21.875 0.916687C23.0903 0.916687 24.1233 1.34203 24.974 2.19273C25.8247 3.04342 26.25 4.07641 26.25 5.29169C26.25 6.50696 25.8247 7.53995 24.974 8.39064C24.1233 9.24134 23.0903 9.66669 21.875 9.66669C21.316 9.66669 20.7813 9.56363 20.2708 9.35752C19.7604 9.15141 19.2986 8.86558 18.8854 8.50002L8.60417 14.4792C8.65278 14.625 8.68924 14.7893 8.71354 14.9721C8.73785 15.1549 8.75 15.3309 8.75 15.5C8.75 15.6702 8.73785 15.8466 8.71354 16.0294C8.68924 16.2122 8.65278 16.376 8.60417 16.5209L18.8854 22.5C19.2986 22.1354 19.7604 21.8501 20.2708 21.644C20.7813 21.4379 21.316 21.3343 21.875 21.3334C23.0903 21.3334 24.1233 21.7587 24.974 22.6094C25.8247 23.4601 26.25 24.4931 26.25 25.7084C26.25 26.9236 25.8247 27.9566 24.974 28.8073C24.1233 29.658 23.0903 30.0834 21.875 30.0834Z" fill="#D9D9D9"/>
</svg>
